<?xml version="1.0" encoding="UTF-8"?>
<svg id="Layer_2" data-name="Layer 2" xmlns="http://www.w3.org/2000/svg" viewBox="0 0 18.91 12.5">
  <defs>
    <style>
      .cls-1 {
        fill: #e0a539;
      }
    </style>
  </defs>
  <g id="PRINT">
    <g>
      <path class="cls-1" d="M15.36,1.43H3.55c-.83,0-1.2,.74-.56,1.11l5.91,3.46c.33,.19,.79,.19,1.12,0l5.91-3.46c.64-.37,.27-1.11-.56-1.11Z"/>
      <path class="cls-1" d="M8.9,7.27L1.44,2.91c-.58-.34-1.44-.05-1.44,.49V11.87c0,.35,.39,.63,.88,.63H18.03c.49,0,.88-.28,.88-.63V3.4c0-.53-.87-.82-1.44-.49l-7.46,4.36c-.32,.19-.79,.19-1.12,0Z"/>
    </g>
  </g>
</svg>