<?xml version="1.0" encoding="UTF-8"?>
<svg id="Layer_2" data-name="Layer 2" xmlns="http://www.w3.org/2000/svg" viewBox="0 0 12.03 23.48">
  <defs>
    <style>
      .cls-1 {
        fill: #e0a539;
      }
    </style>
  </defs>
  <g id="PRINT">
    <path class="cls-1" d="M10.37,0H1.67C.75,0,0,.8,0,1.78V21.7c0,.98,.75,1.78,1.67,1.78H10.37c.92,0,1.67-.8,1.67-1.78V1.78c0-.98-.75-1.78-1.67-1.78Zm-3.97,22.52c-.6,.22-1.25-.11-1.46-.75-.21-.64,.11-1.34,.71-1.56,.6-.22,1.25,.12,1.46,.75,.21,.64-.11,1.34-.71,1.56Zm2.62-3.26H2.95c-.86,0-1.55-.69-1.55-1.55V3.79c0-.86,.69-1.55,1.55-1.55h6.06c.86,0,1.55,.69,1.55,1.55v13.92c0,.86-.69,1.55-1.55,1.55Z"/>
  </g>
</svg>
